<svg width="308" height="237" viewBox="0 0 308 237" fill="none" xmlns="http://www.w3.org/2000/svg">
<path d="M218.648 52.6606C218.648 52.6606 217.564 26.6739 192.849 12.1769C168.135 -2.32005 136.069 -3.0313 111.745 14.4085C88.094 31.3642 78.937 53.7843 82.0478 71.9207C85.0726 89.4988 107.987 105.734 107.987 105.734M79.9383 155.298C79.9383 155.298 70.2117 150.074 54.3553 159.066C34.0695 170.572 37.8077 197.09 37.8077 197.09C45.5372 186.572 62.2174 194.903 78.7541 197.336C95.2909 199.769 104.918 181.258 106.06 170.491C107.202 159.724 99.2509 149.845 91.1246 148.138C84.0687 146.654 81.476 158.096 91.1389 157.705C105.52 157.123 113.775 140.94 81.1947 104.701C48.6146 68.4627 3.35843 99.2784 3.35843 99.2784C3.35843 99.2784 11.5488 100.364 22.9487 112.233C34.3446 124.107 28.8346 125.071 44.9817 136.461C61.1326 147.846 95.3128 141.878 95.3128 141.878M95.3089 141.883C95.3089 141.883 56.2444 90.5844 37.8362 98.1645C19.4281 105.745 82.2499 117.024 82.2499 117.024M94.1322 169.981C94.1322 169.981 64.5682 174.847 59.839 176.642C55.1097 178.437 54.0594 185.751 60.0991 186.019C66.148 186.284 77.1893 164.125 77.1893 164.125M67.902 124.556C67.902 124.556 57.851 120.566 47.3497 121.865M306.698 132.2C305.969 111.542 289.369 82.724 254.997 65.4014C220.626 48.0789 192.025 47.0746 163.232 59.0306C134.433 70.9832 103.625 112.167 103.45 135.797C103.266 159.429 107.592 193.794 149.814 218.956C190.437 243.166 239.117 239.577 274.322 211.881C305.588 187.284 307.429 152.867 306.698 132.2ZM244.709 145.828C246.91 148.857 242.689 155.671 237.984 154.087C233.275 152.507 229.852 146.904 233.132 144.656C236.414 142.416 242.055 142.178 244.709 145.828ZM180.138 79.9884C180.675 76.6843 187.223 74.7878 189.009 78.6497C190.8 82.5151 189.429 88.2317 186.176 87.7215C182.917 87.2078 179.491 83.9715 180.138 79.9884ZM221.384 167.11C220.682 170.387 214.047 172.017 212.458 168.085C210.868 164.153 212.525 158.497 215.751 159.142C218.971 159.784 222.232 163.162 221.384 167.11ZM145.174 17.7107C145.687 19.3238 130.946 30.5876 134.058 34.1176C137.171 37.6476 140.779 34.0008 139.297 32.2801C137.812 30.5642 120.893 36.7078 119.604 35.1921C118.312 33.6812 132.746 20.2301 129.034 18.492C125.321 16.7457 122.221 20.2908 124.151 21.8634C126.08 23.4277 144.661 16.0977 145.174 17.7107ZM214.389 71.348C204.234 76.3167 190.924 140.056 203.104 137.529C215.28 135.008 199.572 71.6925 189.545 67.8124C179.519 63.9323 135.128 85.3977 138.275 96.942C141.421 108.486 195.025 148.849 198.4 142.844C201.774 136.839 146.711 101.99 136.939 107.745C127.167 113.5 123.841 118.852 121.071 131.417C118.3 143.983 113.986 160.063 127.406 165.417C140.821 170.769 198.486 156.276 194.756 148.144C191.025 140.012 139.982 167.765 137.051 182.872C134.603 195.463 174.386 225.361 189.797 213.808C207.818 200.296 207.246 153.635 201.457 152.939C195.668 152.244 189.568 205.449 209.432 215.835C229.3 226.215 261.668 202.86 265.682 189.29C269.697 175.72 214.415 144.941 209.143 149.183C203.875 153.42 270.328 177.489 279.406 174.427C288.485 171.365 298.223 123.186 278.326 113.997C258.43 104.808 204.068 135.652 207.358 141.548C210.649 147.444 273.185 114.98 269.293 98.2556C265.401 81.5314 228.367 64.5021 214.389 71.348Z" stroke="white" stroke-width="2" stroke-miterlimit="10"/>
</svg>
